# xmcd
#
# Track frame offsets:
#	150
#	17289
#	32803
#	50010
#	64015
#	80257
#	96700
#	113427
#	130841
#	146773
#	163053
#	179411
#	195627
#	209531
#	227154
#
# Disc length: 3237 seconds
#
# Revision: 1
# Processed by: cddbd v1.5.2PL0 Copyright (c) Steve Scherf et al.
# Submitted via: audiograbber 1.83.01
#
DISCID=d10ca30f
DTITLE=ASK - ASK 60 D2
DYEAR=1900
DGENRE=
TTITLE0=Gracin, Josh - Would You Go With Me
TTITLE1=Chesney, Kenny - Summertime
TTITLE2=Lambert, Miranda - New Strings
TTITLE3=McCoy, Neal - Last Of A Dying Breed
TTITLE4=Lonestar - What Hurts The Most
TTITLE5=Lonestar - Me And My Gang
TTITLE6=Rio Grand - Kill Me Now
TTITLE7=Milsap, Ronnie - Local Girls
TTITLE8=Lost Trailers - Call Me Crazy
TTITLE9=The Wreckers - Leave The Pieces
TTITLE10=McGraw, Tim - When The Stars Go Blue
TTITLE11=Keith, Toby - A Little Too Late
TTITLE12=Keith, Toby - Get Drunk And Be Somebody
TTITLE13=Keith, Toby - As Good As I Once Was
TTITLE14=Adkins, Trace - Swing (Batter)
EXTD=
EXTT0=
EXTT1=
EXTT2=
EXTT3=
EXTT4=
EXTT5=
EXTT6=
EXTT7=
EXTT8=
EXTT9=
EXTT10=
EXTT11=
EXTT12=
EXTT13=
EXTT14=
PLAYORDER=
